<svg width="233" height="169" viewBox="0 0 233 169" fill="none" xmlns="http://www.w3.org/2000/svg">
<path d="M183.972 39.2358C194.497 45.3277 194.553 55.1826 184.085 61.2745L134.993 89.8311C124.567 95.923 107.546 95.923 96.993 89.8311L47.5746 61.2745C37.0497 55.1826 36.993 45.3277 47.4469 39.2358L96.5533 10.6793C107.007 4.58738 124.014 4.58738 134.553 10.6793L183.972 39.2358Z" fill="#F5FBFF"/>
<g filter="url(#filter0_d_1_42)">
<path d="M184.328 43.1255C194.853 49.2174 194.91 59.0723 184.442 65.1642L135.349 93.7207C124.924 99.8126 107.903 99.8126 97.3494 93.7207L47.931 65.1642C37.4062 59.0723 37.3494 49.2174 47.8033 43.1255L96.9097 14.5689C107.364 8.47703 124.371 8.47703 134.91 14.5689L184.328 43.1255Z" fill="#F5FBFF"/>
</g>
<path d="M136.936 61.3594H137.433H138.355L138.34 61.899L138.284 65.6478L136.851 65.6336L136.936 61.7712V61.3594Z" fill="#277193"/>
<path d="M134.681 60.4507L134.695 59.7549H135.489L137.745 61.0755H137.433V61.3595H136.936V61.7713L134.681 60.4507Z" fill="#277193"/>
<path d="M133.291 59.2007H133.787L134.709 59.2149L134.695 59.7545L134.681 60.4503L134.624 63.4891H133.206L133.291 59.6267V59.2007Z" fill="#277193"/>
<path d="M133.787 58.917H134.085L141.163 58.9596L141.149 59.7832L135.489 59.7548H134.695L134.709 59.2152L133.787 59.201V58.917Z" fill="#277193"/>
<path d="M100.057 39.3206C108.88 34.3648 123.149 34.4358 131.66 39.5337C140.17 44.6315 140.17 52.5552 131.802 57.5963L130.809 57.0141C138.596 52.2854 138.567 44.7877 130.653 40.1159C122.738 35.444 109.277 35.2736 100.993 39.9739H100.88C92.7235 44.6883 92.6242 52.3422 100.653 57.1135C108.681 61.8847 121.518 61.9415 129.802 57.5253L130.794 58.1217C121.929 62.8504 108.099 62.6942 99.5887 57.6815C91.0781 52.6688 91.0781 44.4327 99.8299 39.3916L100.057 39.3206Z" fill="#277193"/>
<path d="M115.192 48.9201L116.199 48.3521L120.043 50.6241L121.05 51.2063L124.752 53.4073L125.759 53.9895L130.851 57.0142L131.844 57.5964L134.085 58.917H133.787V59.201H133.291V59.627L130.837 58.1786L129.844 57.5822L124.738 54.5717L123.745 53.9895L120.029 51.7885L119.036 51.1921L115.192 48.9201Z" fill="#277193"/>
<path d="M110.823 45.7533C112.359 44.9646 114.061 44.5532 115.787 44.5532C117.514 44.5532 119.215 44.9646 120.752 45.7533C123.262 47.1733 123.376 49.5874 121.121 51.1494L120.128 50.5672C121.83 49.3176 121.702 47.4857 119.73 46.3071C118.495 45.6919 117.131 45.3813 115.752 45.401C114.373 45.4208 113.018 45.7704 111.801 46.4207C109.617 47.6845 109.589 49.701 111.716 50.9648C112.839 51.5358 114.071 51.858 115.329 51.9094C116.587 51.9609 117.842 51.7404 119.007 51.263L120 51.8594C118.521 52.4938 116.919 52.7934 115.311 52.7369C113.703 52.6805 112.126 52.2693 110.695 51.5328C108.028 49.9566 108.057 47.4147 110.766 45.8527L110.823 45.7533Z" fill="#277193"/>
<path d="M106.128 43.0125H106.199C109.202 41.497 112.521 40.7159 115.884 40.7332C119.247 40.7505 122.559 41.5656 125.546 43.1119C128.099 44.6171 129.475 46.6193 129.433 48.7919C129.319 49.905 128.929 50.9719 128.297 51.8948C127.665 52.8176 126.812 53.5671 125.816 54.0744L124.809 53.4922C125.685 53.0259 126.435 52.353 126.993 51.5316C127.552 50.7102 127.902 49.765 128.014 48.7777C128.014 46.8891 126.809 45.0857 124.525 43.7367C121.845 42.3373 118.871 41.5936 115.849 41.5665C112.826 41.5393 109.84 42.2295 107.135 43.5805V43.5805C102.369 46.3353 102.312 50.8084 107.007 53.5206C109.649 54.9654 112.621 55.6993 115.631 55.6506C118.459 55.7084 121.261 55.1055 123.816 53.8898L124.809 54.472C121.945 55.8538 118.796 56.5398 115.617 56.4742C112.257 56.524 108.94 55.7073 105.986 54.1028C100.667 51.0924 100.723 46.1081 106.128 43.0125Z" fill="#277193"/>
<path d="M184.142 61.2744L134.993 89.831C124.567 95.9229 107.546 95.9229 96.9928 89.831L47.5744 61.2744C42.2836 58.2072 39.6311 54.1743 39.6453 50.1841V55.8642C39.6453 59.8686 42.2836 63.8873 47.5744 66.9545L96.9787 95.5253C107.503 101.603 124.525 101.603 134.979 95.5253L184.142 66.9545C189.347 63.9299 191.943 59.9822 191.957 56.0204V50.3403C191.886 54.2879 189.291 58.2498 184.142 61.2744Z" fill="#44C4FF"/>
<defs>
<filter id="filter0_d_1_42" x="0" y="0" width="232.257" height="168.29" filterUnits="userSpaceOnUse" color-interpolation-filters="sRGB">
<feFlood flood-opacity="0" result="BackgroundImageFix"/>
<feColorMatrix in="SourceAlpha" type="matrix" values="0 0 0 0 0 0 0 0 0 0 0 0 0 0 0 0 0 0 127 0" result="hardAlpha"/>
<feOffset dy="30"/>
<feGaussianBlur stdDeviation="20"/>
<feComposite in2="hardAlpha" operator="out"/>
<feColorMatrix type="matrix" values="0 0 0 0 0.254902 0 0 0 0 0.729412 0 0 0 0 0.94902 0 0 0 0.5 0"/>
<feBlend mode="normal" in2="BackgroundImageFix" result="effect1_dropShadow_1_42"/>
<feBlend mode="normal" in="SourceGraphic" in2="effect1_dropShadow_1_42" result="shape"/>
</filter>
</defs>
</svg>
