<svg width="233" height="169" viewBox="0 0 233 169" fill="none" xmlns="http://www.w3.org/2000/svg">
<path d="M185.245 66.0102L185.244 66.0104L136.152 94.5669C136.152 94.5669 136.152 94.5669 136.152 94.5669C130.824 97.6678 123.863 99.2037 116.922 99.2037C109.981 99.2037 103.007 97.6678 97.6506 94.5677L185.245 66.0102ZM185.245 66.0102C188.644 64.0298 191.004 61.6244 192.238 59.0394V60.3099C192.238 64.0315 189.785 67.8546 184.685 70.8262L135.593 99.3826L135.593 99.3827C130.453 102.374 123.676 103.884 116.865 103.884C110.055 103.884 103.263 102.374 98.0946 99.3821C98.0946 99.3821 98.0946 99.3821 98.0945 99.3821L48.7471 70.8113L48.7468 70.8112C43.5336 67.797 41.0533 63.9174 41.0533 60.1537V58.8433C42.3036 61.4987 44.7161 63.9781 48.2321 66.011L48.2322 66.0111L97.6503 94.5675L185.245 66.0102Z" fill="#4089D2" stroke="#4089D2"/>
<g filter="url(#filter0_d_1_43)">
<path d="M184.865 43.5397C195.404 49.6174 195.447 59.4865 184.993 65.5784L135.901 94.1349C125.433 100.227 108.426 100.227 97.9007 94.1349L48.4823 65.5784C37.9574 59.4865 37.9007 49.6174 48.3546 43.5397L97.4468 14.9689C107.915 8.89122 124.922 8.89122 135.447 14.9689L184.865 43.5397Z" fill="#F6F5FF"/>
</g>
<path d="M184.865 43.5397C195.404 49.6174 195.447 59.4865 184.993 65.5784L135.901 94.1349C125.433 100.227 108.426 100.227 97.9007 94.1349L48.4823 65.5784C37.9574 59.4865 37.9007 49.6174 48.3546 43.5397L97.4468 14.9689C107.915 8.89122 124.922 8.89122 135.447 14.9689L184.865 43.5397Z" fill="#F6F5FF"/>
<path d="M126.213 57.7114C127.489 58.464 127.518 59.6569 126.284 60.3953C125.577 60.759 124.794 60.9488 124 60.9488C123.206 60.9488 122.423 60.759 121.716 60.3953C120.44 59.6569 120.411 58.464 121.645 57.7256C122.35 57.3563 123.132 57.1622 123.927 57.1597C124.722 57.1572 125.506 57.3465 126.213 57.7114V57.7114ZM122.695 59.8131C123.093 60.0151 123.533 60.1205 123.979 60.1205C124.425 60.1205 124.865 60.0151 125.262 59.8131C125.957 59.4013 125.943 58.7339 125.262 58.3078C124.866 58.1081 124.429 58.004 123.986 58.004C123.542 58.004 123.105 58.1081 122.709 58.3078C122.552 58.3614 122.416 58.4628 122.32 58.5978C122.223 58.7327 122.171 58.8945 122.171 59.0605C122.171 59.2264 122.223 59.3882 122.32 59.5231C122.416 59.6581 122.552 59.7595 122.709 59.8131" fill="#2E2793"/>
<path d="M120.156 54.1899C121.433 54.9283 121.475 56.1353 120.156 56.8737C119.45 57.2374 118.667 57.4272 117.872 57.4272C117.078 57.4272 116.295 57.2374 115.589 56.8737C114.312 56.1353 114.27 54.9425 115.518 54.1899C116.233 53.8142 117.029 53.6179 117.837 53.6179C118.645 53.6179 119.441 53.8142 120.156 54.1899V54.1899ZM116.653 56.2915C117.048 56.4912 117.486 56.5953 117.929 56.5953C118.373 56.5953 118.81 56.4912 119.206 56.2915C119.901 55.8797 119.872 55.1981 119.206 54.7863C118.81 54.5865 118.373 54.4825 117.929 54.4825C117.486 54.4825 117.048 54.5865 116.653 54.7863C115.957 55.1981 115.972 55.8797 116.653 56.2915" fill="#2E2793"/>
<path d="M114.057 50.6682C115.333 51.4066 115.362 52.5995 114.057 53.3521C113.35 53.7158 112.567 53.9056 111.773 53.9056C110.979 53.9056 110.196 53.7158 109.489 53.3521C108.213 52.6137 108.184 51.4066 109.489 50.6682C110.196 50.3045 110.979 50.1147 111.773 50.1147C112.567 50.1147 113.35 50.3045 114.057 50.6682V50.6682ZM110.61 52.7557C111.008 52.9577 111.448 53.0631 111.894 53.0631C112.34 53.0631 112.779 52.9577 113.177 52.7557C113.872 52.3439 113.844 51.6764 113.177 51.2504C112.783 51.0439 112.345 50.9361 111.901 50.9361C111.456 50.9361 111.018 51.0439 110.624 51.2504C109.929 51.6622 109.943 52.3297 110.624 52.7415" fill="#2E2793"/>
<path d="M137.56 54.8572C140.567 56.6038 140.652 59.4297 137.73 61.1763L128.553 66.7427C126.889 67.5963 125.047 68.0415 123.177 68.0415C121.308 68.0415 119.465 67.5963 117.801 66.7427L108.17 61.0627L95.7872 60.4379C95.6349 60.4272 95.4859 60.3887 95.3475 60.3243C95.2773 60.2828 95.2187 60.2242 95.1773 60.1539C95.078 60.0119 95.1773 59.8415 95.3333 59.7279L100.511 56.6322L98.7376 55.6098C95.7163 53.8632 95.6454 51.0374 98.5673 49.2907L107.773 43.7952C109.436 42.9383 111.279 42.4912 113.149 42.4912C115.019 42.4912 116.862 42.9383 118.525 43.7952L137.56 54.8572ZM127.504 66.0753L136.709 60.5799C137.204 60.3501 137.627 59.9892 137.932 59.5362C138.237 59.0832 138.413 58.5553 138.44 58.0096C138.378 57.4569 138.173 56.93 137.844 56.4815C137.516 56.033 137.075 55.6786 136.567 55.4536L117.504 44.4342C116.148 43.7088 114.629 43.3422 113.092 43.3692C111.577 43.3383 110.081 43.7055 108.752 44.4342L99.5461 49.9155C99.0537 50.1612 98.6362 50.5344 98.3369 50.9965C98.0375 51.4585 97.8673 51.9924 97.8439 52.5426C97.9087 53.098 98.1167 53.627 98.4474 54.0776C98.7782 54.5283 99.2203 54.885 99.7305 55.1128L102.028 56.4476C102.085 56.4732 102.134 56.5127 102.171 56.5623C102.208 56.612 102.232 56.6702 102.241 56.7316C102.232 56.7928 102.209 56.8511 102.175 56.9026C102.14 56.9541 102.095 56.9975 102.043 57.0298L97.4184 59.7847L108.539 60.3385C108.698 60.3488 108.852 60.3923 108.993 60.4663L118.794 66.1463C120.146 66.8701 121.659 67.2366 123.191 67.2114C124.711 67.2435 126.212 66.8763 127.546 66.1463" fill="#2E2793"/>
<defs>
<filter id="filter0_d_1_43" x="0.55127" y="0.410645" width="232.25" height="168.293" filterUnits="userSpaceOnUse" color-interpolation-filters="sRGB">
<feFlood flood-opacity="0" result="BackgroundImageFix"/>
<feColorMatrix in="SourceAlpha" type="matrix" values="0 0 0 0 0 0 0 0 0 0 0 0 0 0 0 0 0 0 127 0" result="hardAlpha"/>
<feOffset dy="30"/>
<feGaussianBlur stdDeviation="20"/>
<feComposite in2="hardAlpha" operator="out"/>
<feColorMatrix type="matrix" values="0 0 0 0 0.239216 0 0 0 0 0.509804 0 0 0 0 0.776471 0 0 0 0.5 0"/>
<feBlend mode="normal" in2="BackgroundImageFix" result="effect1_dropShadow_1_43"/>
<feBlend mode="normal" in="SourceGraphic" in2="effect1_dropShadow_1_43" result="shape"/>
</filter>
</defs>
</svg>
