<svg width="233" height="169" viewBox="0 0 233 169" fill="none" xmlns="http://www.w3.org/2000/svg">
<path d="M184.95 43.2358C195.475 49.3277 195.532 59.1826 185.078 65.2745L135.972 93.8311C125.518 99.923 108.511 99.923 97.9858 93.8311L48.5674 65.2745C38.0284 59.1826 37.9716 49.3277 48.4397 43.2358L97.5319 14.6793C108 8.58738 125.007 8.58738 135.532 14.6793L184.95 43.2358Z" fill="#F5F0FA"/>
<path d="M185.078 65.2744L135.972 93.831C125.518 99.9229 108.511 99.9229 97.9857 93.831L48.5673 65.2744C43.2623 62.2072 40.624 58.1743 40.624 54.1841V59.8642C40.624 63.8686 43.2623 67.8873 48.5531 70.9545L97.9715 99.5253C108.511 105.603 125.518 105.603 135.972 99.5253L185.078 70.9545C190.269 67.9299 192.865 63.9822 192.879 60.0204V54.3403C192.879 58.2879 190.34 62.2498 185.078 65.2744Z" fill="#852DEE"/>
<g filter="url(#filter0_d_1_45)">
<path d="M184.95 43.2358C195.475 49.3277 195.532 59.1826 185.078 65.2745L135.972 93.8311C125.518 99.923 108.511 99.923 97.9858 93.8311L48.5674 65.2745C38.0284 59.1826 37.9716 49.3277 48.4397 43.2358L97.5319 14.6793C108 8.58738 125.007 8.58738 135.532 14.6793L184.95 43.2358Z" fill="#F5F0FA"/>
</g>
<path d="M117.177 52.6078C118.184 53.5734 119.234 54.6242 117.645 55.5756C116.846 55.9503 115.967 56.1254 115.085 56.0858C114.203 56.0463 113.344 55.7932 112.581 55.3484L111.276 56.1294L110.525 55.6892L111.83 54.9082C111.374 54.6771 110.97 54.3551 110.643 53.9619C110.316 53.5687 110.073 53.1127 109.929 52.622L111.276 52.338C111.38 52.7559 111.57 53.1474 111.834 53.4874C112.097 53.8274 112.429 54.1082 112.808 54.3118L115.503 52.7214C114.482 51.77 113.518 50.7192 115.078 49.782C115.865 49.4019 116.733 49.2213 117.606 49.256C118.479 49.2906 119.331 49.5395 120.085 49.9808L121.404 49.1855L122.17 49.6257L120.837 50.421C121.585 50.8385 122.185 51.4787 122.553 52.2528L121.234 52.5794C120.934 51.9242 120.438 51.3784 119.815 51.0174L117.177 52.6078ZM113.589 54.752C114.009 55.0145 114.488 55.1699 114.982 55.2046C115.477 55.2392 115.972 55.1521 116.425 54.9508C117.177 54.4964 116.737 53.9142 116.085 53.261L113.603 54.681M116.61 51.983L119.12 50.563C118.693 50.3129 118.212 50.1706 117.718 50.1483C117.224 50.1261 116.731 50.2245 116.284 50.4352C115.56 50.8612 115.929 51.4292 116.567 52.054" fill="#632793"/>
<path d="M130.553 44.0023C138.993 48.8872 139.191 56.7825 131.021 61.6815C122.851 66.5806 109.347 66.5664 100.908 61.6815C92.468 56.7967 92.241 48.9014 100.425 44.0023C108.61 39.1032 122.099 39.0606 130.553 44.0023ZM116.028 64.5216C120.903 64.6124 125.718 63.4331 130 61.0993C133.815 58.8131 135.674 55.8311 135.674 52.849C135.674 49.867 133.574 46.8707 129.631 44.5987C125.274 42.2614 120.39 41.083 115.447 41.1765C110.575 41.0716 105.761 42.2519 101.489 44.5987C97.6736 46.8707 95.8155 49.867 95.8864 52.849C95.9574 55.8311 97.9857 58.8131 101.929 61.0993C106.288 63.4325 111.171 64.6106 116.113 64.5216" fill="#632793"/>
<path d="M126.355 46.5015C132.426 50.009 132.567 55.6748 126.695 59.1823C120.823 62.6897 111.092 62.6897 105.092 59.1823C99.0923 55.6748 98.8795 49.9948 104.752 46.4873C110.624 42.9799 120.298 43.0083 126.355 46.5015ZM115.929 60.9857C119.33 61.0587 122.69 60.236 125.674 58.6001C128.341 57.0097 129.631 54.9222 129.575 52.8348C129.518 50.7474 128.156 48.6884 125.319 47.1547C122.269 45.5201 118.849 44.6986 115.39 44.7691C111.994 44.6973 108.638 45.5199 105.66 47.1547C102.993 48.7452 101.688 50.8184 101.745 52.9058C101.802 54.9932 103.163 57.0665 106 58.5859C109.05 60.2211 112.47 61.0427 115.929 60.9715" fill="#632793"/>
<defs>
<filter id="filter0_d_1_45" x="0.625732" y="0.110352" width="232.256" height="168.29" filterUnits="userSpaceOnUse" color-interpolation-filters="sRGB">
<feFlood flood-opacity="0" result="BackgroundImageFix"/>
<feColorMatrix in="SourceAlpha" type="matrix" values="0 0 0 0 0 0 0 0 0 0 0 0 0 0 0 0 0 0 127 0" result="hardAlpha"/>
<feOffset dy="30"/>
<feGaussianBlur stdDeviation="20"/>
<feComposite in2="hardAlpha" operator="out"/>
<feColorMatrix type="matrix" values="0 0 0 0 0.411765 0 0 0 0 0.141176 0 0 0 0 0.733333 0 0 0 0.5 0"/>
<feBlend mode="normal" in2="BackgroundImageFix" result="effect1_dropShadow_1_45"/>
<feBlend mode="normal" in="SourceGraphic" in2="effect1_dropShadow_1_45" result="shape"/>
</filter>
</defs>
</svg>
