<svg width="233" height="169" viewBox="0 0 233 169" fill="none" xmlns="http://www.w3.org/2000/svg">
<g filter="url(#filter0_d_1_47)">
<path d="M184.858 43.5397C195.383 49.6174 195.44 59.4865 184.972 65.5784L135.879 94.1349C125.426 100.227 108.404 100.227 97.8794 94.1349L48.4611 65.5784C37.9362 59.4865 37.8795 49.6174 48.3334 43.5397L97.4397 14.9689C107.894 8.89122 124.901 8.89122 135.44 14.9689L184.858 43.5397Z" fill="#FFF5F9"/>
</g>
<path d="M184.972 65.5782L135.879 94.1347C125.425 100.227 108.404 100.227 97.8793 94.1347L48.4609 65.5782C43.1701 62.5109 40.5176 58.4781 40.5318 54.4736V60.1537C40.5318 64.1582 43.1701 68.1768 48.4609 71.244L97.8793 99.8006C108.404 105.893 125.425 105.893 135.879 99.8006L184.972 71.244C190.177 68.2194 192.773 64.2576 192.787 60.2957V54.6156C192.773 58.5917 190.177 62.5535 184.972 65.5782Z" fill="#FF44A0"/>
<path d="M184.858 43.5397C195.383 49.6174 195.44 59.4865 184.972 65.5784L135.879 94.1349C125.426 100.227 108.404 100.227 97.8794 94.1349L48.4611 65.5784C37.9362 59.4865 37.8795 49.6174 48.3334 43.5397L97.4397 14.9689C107.894 8.89122 124.901 8.89122 135.44 14.9689L184.858 43.5397Z" fill="#FFF5F9"/>
<path d="M133.851 61.3322C133.895 61.3655 133.93 61.4099 133.951 61.461C133.973 61.512 133.98 61.5679 133.973 61.6228C133.966 61.6777 133.944 61.7297 133.91 61.7734C133.876 61.8172 133.831 61.8512 133.78 61.8718L129.525 64.4137C129.384 64.4767 129.232 64.5094 129.078 64.5094C128.924 64.5094 128.772 64.4767 128.631 64.4137L125.383 63.164C124.091 63.6242 122.762 63.9757 121.411 64.2149L120.745 66.3449C120.674 66.463 120.571 66.5581 120.448 66.6186C120.324 66.6791 120.186 66.7024 120.05 66.6857H113.908C113.734 66.6843 113.564 66.6404 113.411 66.5579C113.321 66.5135 113.251 66.4378 113.213 66.3449L112.489 64.3711C110.972 64.1553 109.476 63.8036 108.021 63.3202L105.184 64.4137C105.041 64.4738 104.886 64.5048 104.731 64.5048C104.575 64.5048 104.42 64.4738 104.277 64.4137L99.8795 61.8576C99.6242 61.7156 99.5958 61.5026 99.766 61.3322L101.624 59.6424C100.833 58.8774 100.197 57.9659 99.7518 56.9586L96.4043 56.632C96.2659 56.6197 96.131 56.5812 96.0071 56.5184C95.9507 56.4945 95.9022 56.4551 95.8671 56.4049C95.832 56.3547 95.8117 56.2956 95.8086 56.2344L95.6951 52.6275C95.6951 52.4145 95.9504 52.2441 96.2908 52.2157L99.8511 51.8749C100.31 50.9295 100.94 50.0773 101.709 49.3615L99.4539 47.5722C99.4027 47.5482 99.3596 47.51 99.3293 47.4622C99.299 47.4144 99.2829 47.359 99.2829 47.3024C99.2829 47.2459 99.299 47.1905 99.3293 47.1427C99.3596 47.0949 99.4027 47.0567 99.4539 47.0326L103.709 44.4908C103.853 44.4206 104.01 44.384 104.17 44.384C104.33 44.384 104.488 44.4206 104.631 44.4908L108.007 45.9108C109.272 45.5126 110.567 45.2181 111.879 45.0304L112.475 42.5596C112.542 42.4376 112.644 42.3385 112.768 42.2752C112.892 42.2119 113.032 42.1873 113.17 42.2046H119.312C119.49 42.2065 119.665 42.2503 119.823 42.3324C119.869 42.3548 119.911 42.3865 119.945 42.4256C119.979 42.4646 120.005 42.5102 120.021 42.5596L120.816 45.1866C122 45.383 123.166 45.6726 124.305 46.0528L127.979 44.4766C128.124 44.4137 128.281 44.3812 128.44 44.3812C128.598 44.3812 128.755 44.4137 128.901 44.4766L133.298 47.0326C133.553 47.1746 133.596 47.4018 133.397 47.5722L130.759 49.7449C131.317 50.321 131.794 50.9707 132.177 51.6761L136.745 52.2157C136.874 52.2275 137 52.2662 137.114 52.3293C137.171 52.3538 137.22 52.3929 137.258 52.4428C137.295 52.4926 137.319 52.5514 137.326 52.6133L137.426 56.2202C137.426 56.419 137.184 56.5894 136.858 56.632L132.603 57.129C132.291 57.8915 131.855 58.5969 131.312 59.2164L133.851 61.3322ZM128.887 63.5901L132.362 61.5168L130.036 59.5288C130.005 59.5009 129.981 59.4669 129.964 59.429C129.947 59.3911 129.939 59.3501 129.939 59.3087C129.939 59.2673 129.947 59.2263 129.964 59.1884C129.981 59.1505 130.005 59.1165 130.036 59.0886L130.192 58.9324C130.729 58.325 131.156 57.6282 131.454 56.8734V56.7456C131.5 56.6599 131.567 56.5875 131.649 56.5353C131.731 56.4831 131.825 56.4528 131.922 56.4474L136.177 55.9362L136.092 53.0109L131.979 52.5423H131.794C131.618 52.5433 131.443 52.5044 131.284 52.4287C131.209 52.3864 131.15 52.3219 131.113 52.2441V52.0879C130.738 51.3907 130.26 50.754 129.695 50.1993C129.624 50.1993 129.582 50.0715 129.525 50.0431C129.484 50.0159 129.45 49.979 129.427 49.9356C129.404 49.8922 129.392 49.8438 129.392 49.7946C129.392 49.7454 129.404 49.6969 129.427 49.6536C129.45 49.6102 129.484 49.5733 129.525 49.5461L132.092 47.4445L128.418 45.4422L124.858 46.8622C124.608 46.9611 124.329 46.9611 124.078 46.8622L123.766 46.7486C122.693 46.389 121.592 46.1183 120.475 45.9392H120.092C119.98 45.9277 119.873 45.8887 119.78 45.8256C119.733 45.8079 119.69 45.7795 119.656 45.7425C119.621 45.7056 119.596 45.6611 119.582 45.6126L118.816 43.0708H113.879L113.298 45.4706C113.298 45.6552 113.043 45.783 112.745 45.8256H112.418C111.184 45.9901 109.964 46.2561 108.773 46.6208L108.404 46.7486C108.157 46.8412 107.885 46.8412 107.638 46.7486L104.461 45.4422L101.014 47.4871L103.213 49.2337C103.254 49.2573 103.288 49.2914 103.312 49.3325C103.336 49.3737 103.349 49.4204 103.349 49.468C103.349 49.5156 103.336 49.5623 103.312 49.6034C103.288 49.6446 103.254 49.6787 103.213 49.7023L103.043 49.8585C102.3 50.5285 101.697 51.3393 101.27 52.2441L101.17 52.4713C101.106 52.5629 101.022 52.6379 100.923 52.6898C100.824 52.7417 100.714 52.769 100.603 52.7695L97.1844 53.0961L97.2695 55.9362L100.489 56.2344C100.632 56.2465 100.772 56.285 100.901 56.348C100.989 56.3975 101.055 56.4787 101.085 56.5752V56.7598C101.494 57.7097 102.087 58.5688 102.83 59.2874C102.83 59.2874 102.957 59.401 103.071 59.5146C103.101 59.5413 103.125 59.574 103.142 59.6107C103.158 59.6475 103.167 59.6873 103.167 59.7276C103.167 59.7679 103.158 59.8077 103.142 59.8445C103.125 59.8812 103.101 59.914 103.071 59.9406L101.312 61.531L104.901 63.5901L107.582 62.5392C107.808 62.4683 108.05 62.4683 108.277 62.5392L108.688 62.6812C110.033 63.1228 111.414 63.4459 112.816 63.6469H113.17C113.304 63.6588 113.434 63.6974 113.553 63.7605C113.643 63.8049 113.714 63.8806 113.752 63.9735L114.461 65.9047H119.44L120.064 63.9025C120.114 63.8128 120.185 63.7372 120.272 63.6826C120.359 63.628 120.458 63.5962 120.56 63.5901H120.929C122.2 63.3699 123.448 63.0372 124.66 62.596L124.901 62.4966C125.162 62.4046 125.448 62.4046 125.709 62.4966L128.858 63.7179" fill="#93277C"/>
<path d="M122.532 50.9663C126.121 53.0538 126.22 56.4192 122.745 58.4924C120.77 59.5078 118.582 60.0374 116.362 60.0374C114.142 60.0374 111.954 59.5078 109.979 58.4924C106.376 56.4192 106.277 53.0538 109.78 50.9663C111.753 49.9545 113.939 49.4268 116.156 49.4268C118.373 49.4268 120.559 49.9545 122.532 50.9663V50.9663ZM116.348 59.2166C118.223 59.26 120.077 58.8095 121.723 57.9102C122.338 57.6287 122.863 57.1827 123.241 56.6215C123.619 56.0603 123.835 55.4055 123.865 54.7294C123.783 54.0454 123.526 53.3943 123.119 52.8394C122.711 52.2845 122.167 51.8447 121.539 51.5627C119.867 50.6619 117.991 50.2071 116.092 50.2421C114.22 50.2029 112.371 50.6584 110.73 51.5627C110.117 51.8438 109.592 52.2873 109.212 52.8454C108.832 53.4035 108.612 54.055 108.575 54.7294C108.658 55.4146 108.916 56.0668 109.323 56.6238C109.73 57.1807 110.273 57.6236 110.901 57.9102C112.579 58.7945 114.451 59.2436 116.348 59.2166" fill="#93277C"/>
<defs>
<filter id="filter0_d_1_47" x="0.530029" y="0.410645" width="232.257" height="168.293" filterUnits="userSpaceOnUse" color-interpolation-filters="sRGB">
<feFlood flood-opacity="0" result="BackgroundImageFix"/>
<feColorMatrix in="SourceAlpha" type="matrix" values="0 0 0 0 0 0 0 0 0 0 0 0 0 0 0 0 0 0 127 0" result="hardAlpha"/>
<feOffset dy="30"/>
<feGaussianBlur stdDeviation="20"/>
<feComposite in2="hardAlpha" operator="out"/>
<feColorMatrix type="matrix" values="0 0 0 0 0.952941 0 0 0 0 0.254902 0 0 0 0 0.6 0 0 0 0.4 0"/>
<feBlend mode="normal" in2="BackgroundImageFix" result="effect1_dropShadow_1_47"/>
<feBlend mode="normal" in="SourceGraphic" in2="effect1_dropShadow_1_47" result="shape"/>
</filter>
</defs>
</svg>
