<svg width="233" height="169" viewBox="0 0 233 169" fill="none" xmlns="http://www.w3.org/2000/svg">
<path d="M184.411 43.2358C194.95 49.3277 195.007 59.1826 184.539 65.2745L135.447 93.8311C124.979 99.923 107.972 99.923 97.4469 93.8311L48.0284 65.2745C37.5036 59.1826 37.4469 49.3277 47.9008 43.2358L97.0072 14.6793C107.461 8.58738 124.468 8.58738 134.993 14.6793L184.411 43.2358Z" fill="#FFF5F5"/>
<path d="M184.539 65.2744L135.447 93.831C124.979 99.9229 107.972 99.9229 97.4467 93.831L48.0282 65.2744C42.7232 62.2072 40.085 58.1743 40.0992 54.1841V59.8642C40.0992 63.8686 42.7232 67.8873 48.0282 70.9545L97.5034 99.5253C108.028 105.603 125.035 105.603 135.503 99.5253L184.596 70.9545C189.787 67.9299 192.397 63.9822 192.411 60.0204V54.3403C192.34 58.2879 189.702 62.2498 184.539 65.2744Z" fill="#FF445B"/>
<g filter="url(#filter0_d_1_48)">
<path d="M184.411 43.2358C194.95 49.3277 195.007 59.1826 184.539 65.2745L135.447 93.8311C124.979 99.923 107.972 99.923 97.4469 93.8311L48.0284 65.2745C37.5036 59.1826 37.4469 49.3277 47.9008 43.2358L97.0072 14.6793C107.461 8.58738 124.468 8.58738 134.993 14.6793L184.411 43.2358Z" fill="#FFF5F5"/>
</g>
<path d="M135.56 50.9322C137.135 51.8552 137.745 53.1049 137.39 54.2977C137.39 54.5107 136.95 54.6669 136.567 54.6243C136.438 54.6125 136.312 54.5738 136.199 54.5107C136.126 54.4796 136.067 54.4244 136.031 54.3545C135.995 54.2846 135.984 54.2043 136 54.1273C136.27 53.2185 135.787 52.2386 134.582 51.5286L119.73 43.0085C118.652 42.4484 117.456 42.156 116.241 42.156C115.027 42.156 113.83 42.4484 112.752 43.0085L98.3546 51.5286C96.4539 52.6646 96.4964 54.4965 98.4681 55.6325L113.319 64.1526C114.397 64.7127 115.594 65.0051 116.808 65.0051C118.023 65.0051 119.22 64.7127 120.298 64.1526L125.972 60.8156C126.126 60.7381 126.296 60.6978 126.468 60.6978C126.64 60.6978 126.811 60.7381 126.965 60.8156C127.028 60.8354 127.084 60.875 127.123 60.9287C127.162 60.9823 127.184 61.0472 127.184 61.1138C127.184 61.1803 127.162 61.2452 127.123 61.2988C127.084 61.3525 127.028 61.3921 126.965 61.412L121.376 64.749C119.983 65.4574 118.442 65.8267 116.879 65.8267C115.317 65.8267 113.776 65.4574 112.383 64.749L97.5319 56.2289C95.0213 54.8089 94.9503 52.409 97.3901 50.9464L111.787 42.4263C113.18 41.7179 114.721 41.3486 116.284 41.3486C117.846 41.3486 119.387 41.7179 120.78 42.4263L135.56 50.9322Z" fill="#932B27"/>
<path d="M137.39 57.251C137.453 57.2807 137.507 57.3265 137.547 57.3839C137.587 57.4412 137.611 57.508 137.617 57.5776C137.617 57.8048 137.262 57.9752 136.879 57.961L112.042 57.3362C111.874 57.3348 111.708 57.2908 111.56 57.2084C111.503 57.1839 111.453 57.1448 111.416 57.095C111.379 57.0451 111.355 56.9863 111.347 56.9244L111.206 51.8266C111.206 51.5994 111.532 51.4148 111.915 51.4148C112.089 51.4079 112.262 51.4523 112.411 51.5426C112.469 51.5684 112.52 51.6077 112.559 51.6571C112.599 51.7064 112.626 51.7646 112.638 51.8266L112.752 56.5268L136.865 57.1374C137.048 57.1214 137.23 57.161 137.39 57.251V57.251Z" fill="#932B27"/>
<defs>
<filter id="filter0_d_1_48" x="0.0974121" y="0.110352" width="232.256" height="168.29" filterUnits="userSpaceOnUse" color-interpolation-filters="sRGB">
<feFlood flood-opacity="0" result="BackgroundImageFix"/>
<feColorMatrix in="SourceAlpha" type="matrix" values="0 0 0 0 0 0 0 0 0 0 0 0 0 0 0 0 0 0 127 0" result="hardAlpha"/>
<feOffset dy="30"/>
<feGaussianBlur stdDeviation="20"/>
<feComposite in2="hardAlpha" operator="out"/>
<feColorMatrix type="matrix" values="0 0 0 0 0.937255 0 0 0 0 0.25098 0 0 0 0 0.337255 0 0 0 0.5 0"/>
<feBlend mode="normal" in2="BackgroundImageFix" result="effect1_dropShadow_1_48"/>
<feBlend mode="normal" in="SourceGraphic" in2="effect1_dropShadow_1_48" result="shape"/>
</filter>
</defs>
</svg>
