<svg width="36" height="46" viewBox="0 0 36 46" fill="none" xmlns="http://www.w3.org/2000/svg">
<path d="M35.2908 0V3.25184L25.8156 8.73311L24.8794 16.6284C25.5232 16.1103 26.2008 15.6359 26.9078 15.2084C28.4884 14.1532 30.3561 13.6126 32.2553 13.6606C34.2128 13.8026 35.8156 15.3504 35.8298 18.9572C35.8298 24.5379 32 30.9422 26.61 34.052C24.7831 35.2906 22.6172 35.9306 20.4114 35.8839L21.2766 32.5184C23.1503 32.5766 24.9998 32.0828 26.5958 31.0984C28.2841 30.1011 29.7023 28.7045 30.7261 27.0309C31.7499 25.3573 32.348 23.4579 32.4681 21.4991C32.4681 17.8212 30.2695 16.4154 25.2908 19.2981C24.101 20.0016 22.9503 20.7695 21.844 21.5985L23.4185 6.94389L35.2908 0Z" fill="#C53546"/>
<path d="M9.13483 14.6262C14.3689 11.6016 17.3618 15.251 17.3902 24.3533C17.3902 34.0663 14.298 41.2516 8.79442 44.4324C3.92917 47.2724 0.63838 43.907 0.539089 34.4923C0.439799 25.0776 4.08518 17.5373 9.13483 14.6262ZM8.97882 41.3226C12.4114 39.3487 14.0426 33.7681 14.0285 26.4692C14.0285 19.3691 12.4256 15.7196 8.95043 17.7219C6.00007 19.4259 3.8724 24.822 3.88659 32.5895C3.88659 40.0304 5.91499 43.0976 8.97882 41.3226Z" fill="#C53546"/>
</svg>
