<svg width="38" height="46" viewBox="0 0 38 46" fill="none" xmlns="http://www.w3.org/2000/svg">
<path d="M33.8581 18.2899L37.3333 16.2876V19.3123L33.8581 21.3287V29.1246L30.7234 30.9422V23.1463L19.1772 29.8204V27.2786L30.2127 2.61286L33.8439 0.51123L33.8581 18.2899ZM30.6666 10.5792C30.6666 9.15915 30.6666 7.56872 30.7659 6.0351L30.6524 6.10611C29.8864 8.20774 29.234 9.79815 28.5957 11.5164L22.5531 24.7509V24.8361L30.695 20.1217V10.5792" fill="#C5357C"/>
<path d="M8.92194 14.4273C14.156 11.4027 17.1488 15.0379 17.1772 24.1544C17.1772 33.8673 14.085 41.0526 8.58144 44.2335C3.73038 47.0735 0.42549 43.7081 0.326199 34.2934C0.226908 24.8786 3.87229 17.3383 8.92194 14.4273ZM8.76585 41.1236C12.1985 39.1356 13.8439 33.5691 13.8155 26.2702C13.8155 19.2412 12.2127 15.5207 8.73754 17.5229C5.80137 19.227 3.65953 24.623 3.68789 32.3905C3.68789 39.8314 5.70202 42.8987 8.76585 41.1236" fill="#C5357C"/>
</svg>
