<svg width="36" height="44" viewBox="0 0 36 44" fill="none" xmlns="http://www.w3.org/2000/svg">
<path d="M27.6048 1.29261C32.9523 -1.80303 35.2218 1.1222 35.236 5.21185C35.236 10.4943 31.931 16.6714 26.7254 25.5039L24.7395 28.77V28.8694L35.9027 22.4083V25.6175L20.002 34.7908V32.4194L22.6261 27.9464C28.9523 17.3246 31.8034 11.9711 31.8317 7.64008C31.8317 4.80005 30.5977 2.75522 26.8956 4.89945C24.7537 6.31376 22.9517 8.18574 21.619 10.3807L20.5126 8.26489C22.3028 5.42017 24.7312 3.0328 27.6048 1.29261V1.29261Z" fill="#2E2793"/>
<path d="M8.59777 12.2554C13.8318 9.23078 16.8247 12.866 16.8531 21.9826C16.8531 31.6955 13.7609 38.8808 8.25734 42.0616C3.39209 44.9017 0.101301 41.5362 0.00201023 32.1215C-0.0972806 22.7068 3.49139 15.1807 8.59777 12.2554ZM8.42755 38.9518C11.8744 36.9637 13.5056 31.3973 13.4914 24.0984C13.4914 16.9983 11.8885 13.3488 8.41337 15.3511C5.46301 17.0551 3.33534 22.4512 3.34953 30.2187C3.34953 37.6596 5.3779 40.7268 8.42755 38.9518" fill="#2E2793"/>
</svg>
