<svg width="36" height="44" viewBox="0 0 36 44" fill="none" xmlns="http://www.w3.org/2000/svg">
<path d="M27.3403 1.86239C32.2339 -0.977646 34.4325 1.09558 34.4325 4.57463C34.1913 8.1831 32.5464 11.553 29.851 13.961V14.0462C32.9148 12.9811 35.4113 14.1882 35.4255 18.1784C35.4255 22.7509 32.3474 28.5445 26.39 31.9952C24.477 33.2622 22.2137 33.8933 19.9219 33.7986L20.8297 30.277C22.7717 30.3899 24.7006 29.8935 26.3474 28.8569C27.9665 28.0103 29.335 26.7527 30.3158 25.2101C31.2966 23.6674 31.8553 21.8939 31.9361 20.067C31.9361 16.0768 28.7588 16.1904 25.5105 18.0648L23.624 19.144V16.304L25.4964 15.2106C27.9361 13.7905 31.0283 10.5671 31.0283 7.17326C31.0283 4.88703 29.7517 3.59481 26.6595 5.38404C24.7139 6.6347 23.0282 8.25001 21.6949 10.1411L20.9148 7.82647C22.6493 5.43946 24.8318 3.41368 27.3403 1.86239V1.86239Z" fill="#6723B8"/>
<path d="M8.67374 12.6545C13.922 9.62988 16.9149 13.2651 16.9433 22.3674C16.9433 32.0946 13.8511 39.2657 8.34752 42.4465C3.49646 45.2865 0.191473 41.9211 0.0779977 32.5064C-0.0354775 23.0917 3.63828 15.5656 8.67374 12.6545ZM8.53189 39.3509C11.9645 37.3628 13.5957 31.7964 13.5674 24.4975C13.5674 17.3974 11.9787 13.7479 8.48933 15.7502C5.55316 17.4542 3.42552 22.8503 3.45389 30.6036C3.45389 38.0445 5.46806 41.1259 8.53189 39.3509Z" fill="#6723B8"/>
</svg>
