<svg width="31" height="44" viewBox="0 0 31 44" fill="none" xmlns="http://www.w3.org/2000/svg">
<path d="M30.5745 0.0932617L30.6454 28.6782L27.3972 30.5669L27.3262 5.57453L27.2553 5.61713L22.9433 10.8002L22.2908 8.22997L27.7092 1.75468L30.5745 0.0932617Z" fill="#3598C5"/>
<path d="M8.70222 12.2488C13.9363 9.22412 16.9434 12.8594 16.9575 21.9617C16.9575 31.6888 13.8653 38.8599 8.36179 42.0408C3.51073 44.8808 0.205763 41.5295 0.106472 32.1006C0.00718144 22.6717 3.65257 15.1598 8.70222 12.2488ZM8.54619 38.9451C11.993 36.9571 13.61 31.3906 13.5958 24.0917C13.5958 16.9916 11.993 13.3422 8.51782 15.3444C5.56746 17.0484 3.45399 22.4445 3.46817 30.1978C3.46817 37.6387 5.48236 40.7201 8.54619 38.9451Z" fill="#3598C5"/>
</svg>
